<mxfile host="Electron" agent="Mozilla/5.0 (Windows NT 10.0; Win64; x64) AppleWebKit/537.36 (KHTML, like Gecko) draw.io/26.1.1 Chrome/132.0.6834.210 Electron/34.3.3 Safari/537.36" version="26.1.1">
  <diagram id="junk_collection_activity_diagram" name="Junk Collection App Activity Diagram">
    <mxGraphModel dx="1020" dy="542" grid="1" gridSize="10" guides="1" tooltips="1" connect="1" arrows="1" fold="1" page="1" pageScale="1" pageWidth="850" pageHeight="1100" math="0" shadow="0">
      <root>
        <mxCell id="0" />
        <mxCell id="1" parent="0" />
        <mxCell id="swimlane1" value="Guest User" style="swimlane;horizontal=0;startSize=30;fontSize=14;" parent="1" vertex="1">
          <mxGeometry x="60" y="100" width="730" height="220" as="geometry" />
        </mxCell>
        <mxCell id="guestStart" value="" style="ellipse;whiteSpace=wrap;html=1;aspect=fixed;fillColor=#000000;" parent="swimlane1" vertex="1">
          <mxGeometry x="70" y="65" width="30" height="30" as="geometry" />
        </mxCell>
        <mxCell id="openApp" value="Open Application" style="rounded=1;whiteSpace=wrap;html=1;fontSize=12;fillColor=#dae8fc;strokeColor=#6c8ebf;" parent="swimlane1" vertex="1">
          <mxGeometry x="140" y="60" width="120" height="40" as="geometry" />
        </mxCell>
        <mxCell id="fonEyVcZ648alAhYHome-6" style="edgeStyle=orthogonalEdgeStyle;rounded=0;orthogonalLoop=1;jettySize=auto;html=1;" parent="swimlane1" source="viewMap" target="fonEyVcZ648alAhYHome-5" edge="1">
          <mxGeometry relative="1" as="geometry" />
        </mxCell>
        <mxCell id="viewMap" value="View Map with Junk Items" style="rounded=1;whiteSpace=wrap;html=1;fontSize=12;fillColor=#dae8fc;strokeColor=#6c8ebf;" parent="swimlane1" vertex="1">
          <mxGeometry x="310" y="60" width="160" height="40" as="geometry" />
        </mxCell>
        <mxCell id="guestEnd" value="" style="ellipse;whiteSpace=wrap;html=1;aspect=fixed;fillColor=#000000;strokeColor=#FFFFFF;" parent="swimlane1" vertex="1">
          <mxGeometry x="670" y="65" width="30" height="30" as="geometry" />
        </mxCell>
        <mxCell id="edge1" value="" style="endArrow=classic;html=1;exitX=1;exitY=0.5;exitDx=0;exitDy=0;entryX=0;entryY=0.5;entryDx=0;entryDy=0;" parent="swimlane1" source="guestStart" target="openApp" edge="1">
          <mxGeometry width="50" height="50" relative="1" as="geometry">
            <mxPoint x="390" y="250" as="sourcePoint" />
            <mxPoint x="440" y="200" as="targetPoint" />
          </mxGeometry>
        </mxCell>
        <mxCell id="edge2" value="" style="endArrow=classic;html=1;exitX=1;exitY=0.5;exitDx=0;exitDy=0;entryX=0;entryY=0.5;entryDx=0;entryDy=0;" parent="swimlane1" source="openApp" target="viewMap" edge="1">
          <mxGeometry width="50" height="50" relative="1" as="geometry">
            <mxPoint x="390" y="250" as="sourcePoint" />
            <mxPoint x="440" y="200" as="targetPoint" />
          </mxGeometry>
        </mxCell>
        <mxCell id="edge3" value="" style="endArrow=classic;html=1;exitX=1;exitY=0.5;exitDx=0;exitDy=0;entryX=0;entryY=0.5;entryDx=0;entryDy=0;" parent="swimlane1" source="viewMap" target="guestEnd" edge="1">
          <mxGeometry width="50" height="50" relative="1" as="geometry">
            <mxPoint x="390" y="250" as="sourcePoint" />
            <mxPoint x="440" y="200" as="targetPoint" />
          </mxGeometry>
        </mxCell>
        <mxCell id="fonEyVcZ648alAhYHome-5" value="view junk item details" style="rounded=1;whiteSpace=wrap;html=1;fontSize=12;fillColor=#dae8fc;strokeColor=#6c8ebf;" parent="swimlane1" vertex="1">
          <mxGeometry x="310" y="150" width="160" height="40" as="geometry" />
        </mxCell>
        <mxCell id="swimlane2" value="Registered User" style="swimlane;horizontal=0;startSize=30;fontSize=14;" parent="1" vertex="1">
          <mxGeometry x="60" y="320" width="730" height="300" as="geometry" />
        </mxCell>
        <mxCell id="regStart" value="" style="ellipse;whiteSpace=wrap;html=1;aspect=fixed;fillColor=#000000;" parent="swimlane2" vertex="1">
          <mxGeometry x="60" y="105" width="30" height="30" as="geometry" />
        </mxCell>
        <mxCell id="openAppReg" value="Open Application" style="rounded=1;whiteSpace=wrap;html=1;fontSize=12;fillColor=#dae8fc;strokeColor=#6c8ebf;" parent="swimlane2" vertex="1">
          <mxGeometry x="130" y="100" width="120" height="40" as="geometry" />
        </mxCell>
        <mxCell id="login" value="Login" style="rounded=1;whiteSpace=wrap;html=1;fontSize=12;fillColor=#dae8fc;strokeColor=#6c8ebf;" parent="swimlane2" vertex="1">
          <mxGeometry x="300" y="100" width="120" height="40" as="geometry" />
        </mxCell>
        <mxCell id="fonEyVcZ648alAhYHome-8" style="edgeStyle=orthogonalEdgeStyle;rounded=0;orthogonalLoop=1;jettySize=auto;html=1;" parent="swimlane2" source="viewMapReg" target="fonEyVcZ648alAhYHome-7" edge="1">
          <mxGeometry relative="1" as="geometry" />
        </mxCell>
        <mxCell id="viewMapReg" value="View Map with Junk Items" style="rounded=1;whiteSpace=wrap;html=1;fontSize=12;fillColor=#dae8fc;strokeColor=#6c8ebf;" parent="swimlane2" vertex="1">
          <mxGeometry x="470" y="100" width="160" height="40" as="geometry" />
        </mxCell>
        <mxCell id="decision" value="Action?" style="rhombus;whiteSpace=wrap;html=1;fillColor=#fff2cc;strokeColor=#d6b656;" parent="swimlane2" vertex="1">
          <mxGeometry x="510" y="180" width="80" height="80" as="geometry" />
        </mxCell>
        <mxCell id="addItem" value="Report New Junk Item" style="rounded=1;whiteSpace=wrap;html=1;fontSize=12;fillColor=#d5e8d4;strokeColor=#82b366;" parent="swimlane2" vertex="1">
          <mxGeometry x="330" y="220" width="140" height="40" as="geometry" />
        </mxCell>
        <mxCell id="deleteItem" value="Delete Item" style="rounded=1;whiteSpace=wrap;html=1;fontSize=12;fillColor=#f8cecc;strokeColor=#b85450;" parent="swimlane2" vertex="1">
          <mxGeometry x="620" y="230" width="100" height="40" as="geometry" />
        </mxCell>
        <mxCell id="edge4" value="" style="endArrow=classic;html=1;exitX=1;exitY=0.5;exitDx=0;exitDy=0;entryX=0;entryY=0.5;entryDx=0;entryDy=0;" parent="swimlane2" source="regStart" target="openAppReg" edge="1">
          <mxGeometry width="50" height="50" relative="1" as="geometry">
            <mxPoint x="380" y="290" as="sourcePoint" />
            <mxPoint x="430" y="240" as="targetPoint" />
          </mxGeometry>
        </mxCell>
        <mxCell id="edge5" value="" style="endArrow=classic;html=1;exitX=1;exitY=0.5;exitDx=0;exitDy=0;entryX=0;entryY=0.5;entryDx=0;entryDy=0;" parent="swimlane2" source="openAppReg" target="login" edge="1">
          <mxGeometry width="50" height="50" relative="1" as="geometry">
            <mxPoint x="380" y="290" as="sourcePoint" />
            <mxPoint x="430" y="240" as="targetPoint" />
          </mxGeometry>
        </mxCell>
        <mxCell id="edge6" value="" style="endArrow=classic;html=1;exitX=1;exitY=0.5;exitDx=0;exitDy=0;entryX=0;entryY=0.5;entryDx=0;entryDy=0;" parent="swimlane2" source="login" target="viewMapReg" edge="1">
          <mxGeometry width="50" height="50" relative="1" as="geometry">
            <mxPoint x="380" y="290" as="sourcePoint" />
            <mxPoint x="430" y="240" as="targetPoint" />
          </mxGeometry>
        </mxCell>
        <mxCell id="edge7" value="" style="endArrow=classic;html=1;exitX=0.5;exitY=1;exitDx=0;exitDy=0;entryX=0.5;entryY=0;entryDx=0;entryDy=0;" parent="swimlane2" source="viewMapReg" target="decision" edge="1">
          <mxGeometry width="50" height="50" relative="1" as="geometry">
            <mxPoint x="380" y="290" as="sourcePoint" />
            <mxPoint x="430" y="240" as="targetPoint" />
          </mxGeometry>
        </mxCell>
        <mxCell id="edge8" value="Report" style="endArrow=classic;html=1;exitX=0;exitY=1;exitDx=0;exitDy=0;entryX=1;entryY=0.5;entryDx=0;entryDy=0;" parent="swimlane2" source="decision" target="addItem" edge="1">
          <mxGeometry width="50" height="50" relative="1" as="geometry">
            <mxPoint x="380" y="290" as="sourcePoint" />
            <mxPoint x="430" y="240" as="targetPoint" />
          </mxGeometry>
        </mxCell>
        <mxCell id="edge9" value="Delete" style="endArrow=classic;html=1;exitX=1;exitY=1;exitDx=0;exitDy=0;entryX=0;entryY=0.5;entryDx=0;entryDy=0;" parent="swimlane2" source="decision" target="deleteItem" edge="1">
          <mxGeometry width="50" height="50" relative="1" as="geometry">
            <mxPoint x="380" y="290" as="sourcePoint" />
            <mxPoint x="430" y="240" as="targetPoint" />
          </mxGeometry>
        </mxCell>
        <mxCell id="fonEyVcZ648alAhYHome-7" value="view junk item details" style="rounded=1;whiteSpace=wrap;html=1;fontSize=12;fillColor=#dae8fc;strokeColor=#6c8ebf;" parent="swimlane2" vertex="1">
          <mxGeometry x="470" y="30" width="160" height="40" as="geometry" />
        </mxCell>
        <mxCell id="swimlane3" value="System" style="swimlane;horizontal=0;startSize=30;fontSize=14;" parent="1" vertex="1">
          <mxGeometry x="60" y="620" width="730" height="500" as="geometry" />
        </mxCell>
        <mxCell id="sysStart" value="" style="ellipse;whiteSpace=wrap;html=1;aspect=fixed;fillColor=#000000;" parent="swimlane3" vertex="1">
          <mxGeometry x="70" y="65" width="30" height="30" as="geometry" />
        </mxCell>
        <mxCell id="scheduledTask" value="Scheduled Background Task" style="rounded=1;whiteSpace=wrap;html=1;fontSize=12;fillColor=#e1d5e7;strokeColor=#9673a6;" parent="swimlane3" vertex="1">
          <mxGeometry x="140" y="60" width="160" height="40" as="geometry" />
        </mxCell>
        <mxCell id="scrapeFB" value="Scrape Facebook Posts for Junk Items" style="rounded=1;whiteSpace=wrap;html=1;fontSize=12;fillColor=#e1d5e7;strokeColor=#9673a6;" parent="swimlane3" vertex="1">
          <mxGeometry x="350" y="60" width="200" height="40" as="geometry" />
        </mxCell>
        <mxCell id="addToMap" value="Add Item to Map" style="rounded=1;whiteSpace=wrap;html=1;fontSize=12;fillColor=#d5e8d4;strokeColor=#82b366;" parent="swimlane3" vertex="1">
          <mxGeometry x="600" y="235" width="100" height="40" as="geometry" />
        </mxCell>
        <mxCell id="sysEnd" value="" style="ellipse;whiteSpace=wrap;html=1;aspect=fixed;fillColor=#000000;strokeColor=#FFFFFF;" parent="swimlane3" vertex="1">
          <mxGeometry x="480" y="240" width="30" height="30" as="geometry" />
        </mxCell>
        <mxCell id="edge10" value="" style="endArrow=classic;html=1;exitX=1;exitY=0.5;exitDx=0;exitDy=0;entryX=0;entryY=0.5;entryDx=0;entryDy=0;" parent="swimlane3" source="sysStart" target="scheduledTask" edge="1">
          <mxGeometry width="50" height="50" relative="1" as="geometry">
            <mxPoint x="390" y="250" as="sourcePoint" />
            <mxPoint x="440" y="200" as="targetPoint" />
          </mxGeometry>
        </mxCell>
        <mxCell id="edge11" value="" style="endArrow=classic;html=1;exitX=1;exitY=0.5;exitDx=0;exitDy=0;entryX=0;entryY=0.5;entryDx=0;entryDy=0;" parent="swimlane3" source="scheduledTask" target="scrapeFB" edge="1">
          <mxGeometry width="50" height="50" relative="1" as="geometry">
            <mxPoint x="390" y="250" as="sourcePoint" />
            <mxPoint x="440" y="200" as="targetPoint" />
          </mxGeometry>
        </mxCell>
        <mxCell id="MR6RcODBRpLyldwYG2RC-14" value="" style="edgeStyle=orthogonalEdgeStyle;rounded=0;orthogonalLoop=1;jettySize=auto;html=1;" edge="1" parent="swimlane3" source="MR6RcODBRpLyldwYG2RC-1" target="MR6RcODBRpLyldwYG2RC-13">
          <mxGeometry relative="1" as="geometry" />
        </mxCell>
        <mxCell id="MR6RcODBRpLyldwYG2RC-1" value="Scheduled Item Cleaner" style="rounded=1;whiteSpace=wrap;html=1;fontSize=12;fillColor=#e1d5e7;strokeColor=#9673a6;" vertex="1" parent="swimlane3">
          <mxGeometry x="140" y="140" width="160" height="40" as="geometry" />
        </mxCell>
        <mxCell id="MR6RcODBRpLyldwYG2RC-3" value="" style="endArrow=classic;html=1;rounded=0;exitX=1;exitY=1;exitDx=0;exitDy=0;entryX=0;entryY=0;entryDx=0;entryDy=0;" edge="1" parent="swimlane3" source="sysStart" target="MR6RcODBRpLyldwYG2RC-1">
          <mxGeometry width="50" height="50" relative="1" as="geometry">
            <mxPoint x="340" y="220" as="sourcePoint" />
            <mxPoint x="390" y="170" as="targetPoint" />
          </mxGeometry>
        </mxCell>
        <mxCell id="MR6RcODBRpLyldwYG2RC-4" value="Delete Item from Map" style="rounded=1;whiteSpace=wrap;html=1;fontSize=12;fillColor=#d5e8d4;strokeColor=#82b366;arcSize=23;" vertex="1" parent="swimlane3">
          <mxGeometry x="170" y="350" width="100" height="40" as="geometry" />
        </mxCell>
        <mxCell id="MR6RcODBRpLyldwYG2RC-11" value="" style="endArrow=classic;html=1;rounded=0;exitX=0;exitY=0.5;exitDx=0;exitDy=0;entryX=1;entryY=0.5;entryDx=0;entryDy=0;" edge="1" parent="swimlane3" source="addToMap" target="sysEnd">
          <mxGeometry width="50" height="50" relative="1" as="geometry">
            <mxPoint x="340" y="120" as="sourcePoint" />
            <mxPoint x="390" y="70" as="targetPoint" />
          </mxGeometry>
        </mxCell>
        <mxCell id="MR6RcODBRpLyldwYG2RC-13" value="Is the Item Old?" style="rhombus;whiteSpace=wrap;html=1;fillColor=#fff2cc;strokeColor=#d6b656;" vertex="1" parent="swimlane3">
          <mxGeometry x="170" y="220" width="100" height="70" as="geometry" />
        </mxCell>
        <mxCell id="MR6RcODBRpLyldwYG2RC-15" value="" style="endArrow=classic;html=1;rounded=0;exitX=0.5;exitY=1;exitDx=0;exitDy=0;entryX=0.5;entryY=0;entryDx=0;entryDy=0;" edge="1" parent="swimlane3" source="MR6RcODBRpLyldwYG2RC-13" target="MR6RcODBRpLyldwYG2RC-4">
          <mxGeometry width="50" height="50" relative="1" as="geometry">
            <mxPoint x="340" y="320" as="sourcePoint" />
            <mxPoint x="390" y="270" as="targetPoint" />
          </mxGeometry>
        </mxCell>
        <mxCell id="MR6RcODBRpLyldwYG2RC-16" value="Yes" style="edgeLabel;html=1;align=center;verticalAlign=middle;resizable=0;points=[];" vertex="1" connectable="0" parent="MR6RcODBRpLyldwYG2RC-15">
          <mxGeometry x="0.3444" y="-2" relative="1" as="geometry">
            <mxPoint as="offset" />
          </mxGeometry>
        </mxCell>
        <mxCell id="MR6RcODBRpLyldwYG2RC-17" value="" style="endArrow=classic;html=1;rounded=0;exitX=1;exitY=0.5;exitDx=0;exitDy=0;entryX=0;entryY=0.5;entryDx=0;entryDy=0;" edge="1" parent="swimlane3" source="MR6RcODBRpLyldwYG2RC-13" target="sysEnd">
          <mxGeometry width="50" height="50" relative="1" as="geometry">
            <mxPoint x="340" y="320" as="sourcePoint" />
            <mxPoint x="390" y="270" as="targetPoint" />
          </mxGeometry>
        </mxCell>
        <mxCell id="MR6RcODBRpLyldwYG2RC-18" value="No" style="edgeLabel;html=1;align=center;verticalAlign=middle;resizable=0;points=[];" vertex="1" connectable="0" parent="MR6RcODBRpLyldwYG2RC-17">
          <mxGeometry x="-0.3539" y="-2" relative="1" as="geometry">
            <mxPoint as="offset" />
          </mxGeometry>
        </mxCell>
        <mxCell id="MR6RcODBRpLyldwYG2RC-19" value="" style="endArrow=classic;html=1;rounded=0;exitX=1;exitY=0;exitDx=0;exitDy=0;entryX=0;entryY=1;entryDx=0;entryDy=0;" edge="1" parent="swimlane3" source="MR6RcODBRpLyldwYG2RC-4" target="sysEnd">
          <mxGeometry width="50" height="50" relative="1" as="geometry">
            <mxPoint x="290" y="360" as="sourcePoint" />
            <mxPoint x="340" y="310" as="targetPoint" />
          </mxGeometry>
        </mxCell>
        <mxCell id="MR6RcODBRpLyldwYG2RC-6" value="" style="edgeStyle=orthogonalEdgeStyle;rounded=0;orthogonalLoop=1;jettySize=auto;html=1;entryX=0.5;entryY=0;entryDx=0;entryDy=0;exitX=0.5;exitY=1;exitDx=0;exitDy=0;" edge="1" parent="1" source="addItem" target="itemDetected">
          <mxGeometry relative="1" as="geometry">
            <Array as="points">
              <mxPoint x="460" y="640" />
              <mxPoint x="710" y="640" />
            </Array>
            <mxPoint x="460" y="580" as="sourcePoint" />
            <mxPoint x="700" y="800" as="targetPoint" />
          </mxGeometry>
        </mxCell>
        <mxCell id="itemDetected" value="Junk Item Detected?" style="rhombus;whiteSpace=wrap;html=1;fillColor=#fff2cc;strokeColor=#d6b656;" parent="1" vertex="1">
          <mxGeometry x="660" y="660" width="100" height="70" as="geometry" />
        </mxCell>
        <mxCell id="edge12" value="" style="endArrow=classic;html=1;entryX=0;entryY=0.5;entryDx=0;entryDy=0;" parent="1" target="itemDetected" edge="1">
          <mxGeometry width="50" height="50" relative="1" as="geometry">
            <mxPoint x="610" y="700" as="sourcePoint" />
            <mxPoint x="500" y="820" as="targetPoint" />
          </mxGeometry>
        </mxCell>
        <mxCell id="edge13" value="Yes" style="endArrow=classic;html=1;exitX=0.5;exitY=1;exitDx=0;exitDy=0;entryX=0.5;entryY=0;entryDx=0;entryDy=0;" parent="1" source="itemDetected" target="addToMap" edge="1">
          <mxGeometry width="50" height="50" relative="1" as="geometry">
            <mxPoint x="440" y="1070" as="sourcePoint" />
            <mxPoint x="490" y="1020" as="targetPoint" />
          </mxGeometry>
        </mxCell>
        <mxCell id="MR6RcODBRpLyldwYG2RC-9" value="" style="endArrow=classic;html=1;rounded=0;entryX=1;entryY=0;entryDx=0;entryDy=0;exitX=0;exitY=1;exitDx=0;exitDy=0;" edge="1" parent="1" source="itemDetected" target="sysEnd">
          <mxGeometry width="50" height="50" relative="1" as="geometry">
            <mxPoint x="670" y="780" as="sourcePoint" />
            <mxPoint x="450" y="790" as="targetPoint" />
          </mxGeometry>
        </mxCell>
        <mxCell id="MR6RcODBRpLyldwYG2RC-12" value="No" style="edgeLabel;html=1;align=center;verticalAlign=middle;resizable=0;points=[];" vertex="1" connectable="0" parent="MR6RcODBRpLyldwYG2RC-9">
          <mxGeometry x="-0.2" relative="1" as="geometry">
            <mxPoint x="-1" as="offset" />
          </mxGeometry>
        </mxCell>
        <mxCell id="MR6RcODBRpLyldwYG2RC-20" style="edgeStyle=orthogonalEdgeStyle;rounded=0;orthogonalLoop=1;jettySize=auto;html=1;entryX=1;entryY=0.5;entryDx=0;entryDy=0;exitX=0.75;exitY=1;exitDx=0;exitDy=0;" edge="1" parent="1" source="deleteItem" target="MR6RcODBRpLyldwYG2RC-4">
          <mxGeometry relative="1" as="geometry">
            <mxPoint x="780" y="590" as="sourcePoint" />
            <Array as="points">
              <mxPoint x="770" y="590" />
              <mxPoint x="770" y="990" />
            </Array>
          </mxGeometry>
        </mxCell>
      </root>
    </mxGraphModel>
  </diagram>
</mxfile>
